<svg id="Capa_1" data-name="Capa 1" xmlns="http://www.w3.org/2000/svg" viewBox="0 0 425.2 425.2"><defs><style>.cls-1{fill:#c6c6c6;}.cls-2,.cls-5,.cls-6,.cls-7{fill:none;}.cls-3{fill:#e30613;}.cls-4,.cls-8{fill:#fff;}.cls-5{stroke:#e30613;stroke-width:2.86px;stroke-dasharray:4.93 4.93;}.cls-5,.cls-6,.cls-7{stroke-miterlimit:10;}.cls-6,.cls-7{stroke:#1d1d1b;}.cls-6{stroke-width:1.25px;}.cls-7{stroke-width:1.26px;}.cls-8{opacity:0.8;}</style></defs><title>LOGOS SISTEMAS FINALES</title><path class="cls-1" d="M207.78,341.37A124.26,124.26,0,1,1,332,217.11,124.26,124.26,0,0,1,207.78,341.37Z"/><path class="cls-2" d="M207.78,87.58A130,130,0,0,0,103.54,295.22H312A130,130,0,0,0,207.78,87.58Z"/><path class="cls-3" d="M77.76,217.6A130,130,0,1,1,312,295.22H379.8a187.82,187.82,0,0,0,16.68-77.62c0-104.22-84.48-188.71-188.7-188.71S19.07,113.38,19.07,217.6a187.83,187.83,0,0,0,16.69,77.62h67.78A129.3,129.3,0,0,1,77.76,217.6Z"/><path class="cls-4" d="M48.89,223.22l.32,3.41-.77.07a3.74,3.74,0,0,0-2,.75,2.05,2.05,0,0,0-.68,1.93,2.15,2.15,0,0,0,.38,1.11,2.21,2.21,0,0,0,.73.64,2.86,2.86,0,0,0,1,.28,6.55,6.55,0,0,0,1.17,0,10.87,10.87,0,0,0,1.16-.16,2.21,2.21,0,0,0,.82-.33,1.94,1.94,0,0,0,.58-.65,5.25,5.25,0,0,0,.43-1.1l.79-2.7a6.36,6.36,0,0,1,.85-1.94A4.43,4.43,0,0,1,55,223.29a6.09,6.09,0,0,1,1.77-.67,18.18,18.18,0,0,1,2.31-.36,12.53,12.53,0,0,1,2.82,0,5.85,5.85,0,0,1,2.28.76,4.89,4.89,0,0,1,1.65,1.7,6.51,6.51,0,0,1,.79,2.73,6.12,6.12,0,0,1-.21,2.35,5.53,5.53,0,0,1-1,1.95,6,6,0,0,1-1.68,1.39,5.56,5.56,0,0,1-2.18.66l-1.27.12-.32-3.41,1.07-.1a2.84,2.84,0,0,0,1.64-.71,2.16,2.16,0,0,0,.57-1.93,3.06,3.06,0,0,0-.37-1.33,1.82,1.82,0,0,0-.79-.69,3,3,0,0,0-1.15-.21c-.44,0-.93,0-1.46.09a15,15,0,0,0-1.53.21,2.55,2.55,0,0,0-1,.36,1.9,1.9,0,0,0-.54.68A8.2,8.2,0,0,0,56,228l-.77,2.54a5.4,5.4,0,0,1-2.11,3.18,8.15,8.15,0,0,1-3.66,1.11,8.76,8.76,0,0,1-2.57-.13,5.76,5.76,0,0,1-2.18-.91,5.08,5.08,0,0,1-1.56-1.66,6.12,6.12,0,0,1-.76-2.54,5.8,5.8,0,0,1,.25-2.37,6,6,0,0,1,1.07-1.93,5.17,5.17,0,0,1,3.53-1.89Z"/><path class="cls-4" d="M65.85,219.34l-23.9.59-.09-3.42,23.9-.6Z"/><path class="cls-4" d="M49.14,201.18,49,204.6l-.77,0a3.62,3.62,0,0,0-2,.46,2.06,2.06,0,0,0-.94,1.83,2.12,2.12,0,0,0,.22,1.15,2.27,2.27,0,0,0,.64.73,2.81,2.81,0,0,0,1,.41,6.12,6.12,0,0,0,1.16.16,11.3,11.3,0,0,0,1.17,0,2.27,2.27,0,0,0,.85-.22,1.86,1.86,0,0,0,.67-.56,5.46,5.46,0,0,0,.58-1l1.15-2.57a6.38,6.38,0,0,1,1.11-1.8,4.26,4.26,0,0,1,1.4-1,6.52,6.52,0,0,1,1.85-.43,19.73,19.73,0,0,1,2.34,0,12.55,12.55,0,0,1,2.79.43,5.78,5.78,0,0,1,2.15,1.06,4.82,4.82,0,0,1,1.4,1.91,6.59,6.59,0,0,1,.41,2.81,6.06,6.06,0,0,1-.53,2.3,5.44,5.44,0,0,1-1.29,1.79,6.07,6.07,0,0,1-1.85,1.15,5.38,5.38,0,0,1-2.25.35l-1.27,0,.15-3.43,1.07.05a2.78,2.78,0,0,0,1.72-.48,2.17,2.17,0,0,0,.83-1.83,3,3,0,0,0-.19-1.37,1.74,1.74,0,0,0-.69-.78,2.47,2.47,0,0,0-1.11-.37c-.43,0-.92-.09-1.45-.11a13.19,13.19,0,0,0-1.55,0,2.64,2.64,0,0,0-1,.22,2,2,0,0,0-.63.6,7.84,7.84,0,0,0-.54,1l-1.12,2.4a5.4,5.4,0,0,1-2.53,2.87,8.29,8.29,0,0,1-3.77.59,8.73,8.73,0,0,1-2.53-.48,5.7,5.7,0,0,1-2-1.2,5.07,5.07,0,0,1-1.32-1.86,6,6,0,0,1-.4-2.62,5.47,5.47,0,0,1,.57-2.31,5.86,5.86,0,0,1,1.32-1.77,5.15,5.15,0,0,1,3.75-1.38Z"/><path class="cls-4" d="M66.69,197.65,46.17,195l-.5,3.93-3.2-.41,1.44-11.26,3.2.41-.5,3.93,20.52,2.63Z"/><path class="cls-4" d="M67.85,189.28l-23.4-4.93,2.11-10,3.15.66-1.4,6.64,6.87,1.45,1.22-5.78,3.15.66-1.21,5.78,6.86,1.45,1.4-6.64,3.35.71Z"/><path class="cls-4" d="M70.25,177.72l-22.73-7.39,1-3.13,13.4-.27,0-.06L51.26,158.8l1-3.16L75,163,74,166.29l-13.83-4.5,0,.07,8.72,6.4-.52,1.63H57.51l0,.07,13.82,4.49Z"/><path class="cls-4" d="M75.46,162.05,55.89,147.33l1.17-2.6,24,5-1.41,3.12-5.09-1.2-1.93,4.25,4.27,3Zm-4.12-11.16-8.59-2,0,.06,7.2,5.1Z"/><path class="cls-4" d="M84.51,143.48,64.29,130.72l2.7-4.29a5.89,5.89,0,0,1,3.76-2.93,6.38,6.38,0,0,1,4.68,1.14l9.45,6c1.9,1.2,3,2.54,3.32,4a6.39,6.39,0,0,1-1.15,4.81ZM68.84,129.54l14.77,9.32.84-1.34a2.54,2.54,0,0,0,.48-2.11,3.43,3.43,0,0,0-1.59-1.72l-9.74-6.15a3.61,3.61,0,0,0-2.15-.68,2.41,2.41,0,0,0-1.77,1.35Z"/><path class="cls-4" d="M92,131.92,73,117.39l6.2-8.11,2.56,2-4.12,5.39,5.57,4.27,3.59-4.7,2.56,2-3.59,4.7,5.57,4.26,4.12-5.38,2.72,2.08Z"/><path class="cls-4" d="M103.29,118,86.4,101.1,90,97.52a5.89,5.89,0,0,1,4.31-2,6.34,6.34,0,0,1,4.3,2.16l7.9,7.91c1.58,1.58,2.37,3.14,2.35,4.65a6.45,6.45,0,0,1-2.19,4.44ZM91.1,101l12.33,12.36,1.12-1.12a2.55,2.55,0,0,0,.94-2,3.46,3.46,0,0,0-1.17-2l-8.14-8.16a3.65,3.65,0,0,0-2-1.14,2.48,2.48,0,0,0-2,.93Z"/><path class="cls-4" d="M113.34,108.33,97.7,90.24,100.29,88l15.64,18.09Z"/><path class="cls-4" d="M118.12,104.15,103.82,85l4.41-3.29q4.84-3.61,9,2A8.7,8.7,0,0,1,118.89,87a5.11,5.11,0,0,1-.41,3.28L128,96.8,125.06,99l-8.66-6.28-1.64,1.23,6.1,8.18Zm-9.63-18.62,4.46,6,1.56-1.17a3.52,3.52,0,0,0,1-1.06,2.08,2.08,0,0,0,.24-1.08,3.44,3.44,0,0,0-.4-1.15,10.7,10.7,0,0,0-.87-1.34,12.77,12.77,0,0,0-1-1.22,3.11,3.11,0,0,0-1-.71,2.72,2.72,0,0,0-2.5.69Z"/><path class="cls-4" d="M129.25,96,116.74,75.67l8.7-5.34,1.69,2.74-5.78,3.55,3.67,6,5-3.09,1.68,2.75-5,3.09,3.67,6,5.78-3.55L138,90.7Z"/><path class="cls-4" d="M146.16,78.94l.66,1.32a5.41,5.41,0,0,1,.56,2.06,5.73,5.73,0,0,1-.26,2.1,5.55,5.55,0,0,1-1,1.87,5,5,0,0,1-1.7,1.35,7.46,7.46,0,0,1-1.9.64,4.68,4.68,0,0,1-2,0,5.18,5.18,0,0,1-2-1,6.11,6.11,0,0,1-1.67-2.18L131,73.32a5.81,5.81,0,0,1-.61-2.13,5.2,5.2,0,0,1,.24-2.08,5.53,5.53,0,0,1,1.06-1.82,6,6,0,0,1,1.84-1.38,5.2,5.2,0,0,1,4.22-.34,5.78,5.78,0,0,1,1.86,1.12,6.32,6.32,0,0,1,1.4,1.87l.6,1.21-3.07,1.52-.51-1A2.78,2.78,0,0,0,136.73,69,1.85,1.85,0,0,0,135,69a1.76,1.76,0,0,0-1.17,1.46,4.33,4.33,0,0,0,.52,2l5.44,10.94A3.21,3.21,0,0,0,141,84.73a1.79,1.79,0,0,0,1.77-.09,2.53,2.53,0,0,0,.59-.43,2.16,2.16,0,0,0,.48-.67,2,2,0,0,0,.12-.89,3,3,0,0,0-.34-1.14l-.53-1.05Z"/><path class="cls-4" d="M159,73.87l.53,1.38a5.31,5.31,0,0,1,.37,2.11,6,6,0,0,1-.45,2.06,5.8,5.8,0,0,1-1.17,1.77,5.18,5.18,0,0,1-1.83,1.19,7.64,7.64,0,0,1-1.94.46,4.82,4.82,0,0,1-2-.22,5.2,5.2,0,0,1-1.86-1.14,6,6,0,0,1-1.46-2.33l-4.74-12.28a5.89,5.89,0,0,1-.41-2.19,5.21,5.21,0,0,1,.43-2,5.63,5.63,0,0,1,1.23-1.71,5.9,5.9,0,0,1,2-1.21,5.18,5.18,0,0,1,4.23.06,5.63,5.63,0,0,1,1.74,1.29,6.34,6.34,0,0,1,1.22,2l.48,1.26-3.19,1.23-.42-1.07a2.73,2.73,0,0,0-1.16-1.42,1.82,1.82,0,0,0-1.7-.13c-.8.3-1.23.75-1.3,1.34a4.26,4.26,0,0,0,.33,2l4.4,11.4a3.17,3.17,0,0,0,1.05,1.47,1.78,1.78,0,0,0,1.77.07,2.3,2.3,0,0,0,.63-.37,2.16,2.16,0,0,0,.54-.62,2.07,2.07,0,0,0,.2-.87,3,3,0,0,0-.23-1.17l-.43-1.09Z"/><path class="cls-4" d="M163.82,79.54l-7-22.85,3.27-1,7,22.86Z"/><path class="cls-4" d="M165.57,59.9a6.23,6.23,0,0,1-.08-2.6,5.38,5.38,0,0,1,.9-2.1,5.79,5.79,0,0,1,1.54-1.46,6.28,6.28,0,0,1,1.93-.82,6.17,6.17,0,0,1,4.15.53A5.47,5.47,0,0,1,175.7,55a6,6,0,0,1,1.07,2.37l2.82,12.31a6.24,6.24,0,0,1,.09,2.63,5.4,5.4,0,0,1-.88,2,5.85,5.85,0,0,1-1.57,1.49,6.07,6.07,0,0,1-1.93.83,6.14,6.14,0,0,1-2.1.1,5.46,5.46,0,0,1-2-.67,5.19,5.19,0,0,1-1.71-1.44,6,6,0,0,1-1.06-2.4Zm2-7.34,1.89-5.29,3.53-.81-3.26,5.6Zm4.19,18.88a2.3,2.3,0,0,0,1.08,1.63,2.55,2.55,0,0,0,3.18-.73,2.26,2.26,0,0,0,.26-1.94l-2.82-12.3a2.3,2.3,0,0,0-1.08-1.63,2.55,2.55,0,0,0-3.18.73,2.28,2.28,0,0,0-.26,1.93Z"/><path class="cls-4" d="M183.12,74.72l-3-23.72,3.27-.41,6.94,13.64h.06l-1.81-14.29,3.4-.43,3,23.72-3.2.41-7-13.61h-.06l1.8,14.26Z"/><path class="cls-4" d="M206.67,72.83l.16-10.11-4.48-13.87,3.63,0,2.6,9.55h.07l2.9-9.46,3.63.06-4.93,13.73-.16,10.1Z"/><path class="cls-4" d="M233.76,68.34l-.21,1.47a5.2,5.2,0,0,1-.71,2,5.59,5.59,0,0,1-1.4,1.58,5.35,5.35,0,0,1-1.88,1,5,5,0,0,1-2.18.15,7.71,7.71,0,0,1-1.92-.55,4.57,4.57,0,0,1-1.66-1.19,5.11,5.11,0,0,1-1.07-1.9,6.1,6.1,0,0,1-.13-2.75l1.87-13a5.87,5.87,0,0,1,.71-2.1,5.1,5.1,0,0,1,1.38-1.57,5.33,5.33,0,0,1,1.91-.89,6,6,0,0,1,2.3-.1,5.2,5.2,0,0,1,3.66,2.12,5.65,5.65,0,0,1,.89,2,6.09,6.09,0,0,1,.09,2.34l-.19,1.33-3.39-.49.16-1.13a2.79,2.79,0,0,0-.32-1.81,1.83,1.83,0,0,0-1.42-1,1.74,1.74,0,0,0-1.79.54,4.19,4.19,0,0,0-.7,1.92L226,68.39a3.17,3.17,0,0,0,.2,1.79,1.78,1.78,0,0,0,1.51.93,2.64,2.64,0,0,0,.74,0,2.56,2.56,0,0,0,.77-.28,2.16,2.16,0,0,0,.6-.66A2.89,2.89,0,0,0,230.2,69l.17-1.16Z"/><path class="cls-4" d="M239.12,57.72a6.05,6.05,0,0,1,1.09-2.36A5.42,5.42,0,0,1,242,53.88a5.69,5.69,0,0,1,2-.61,6.07,6.07,0,0,1,2.09.13,6.24,6.24,0,0,1,3.48,2.33,5.59,5.59,0,0,1,.84,2.1,6.26,6.26,0,0,1-.11,2.6l-3,12.27a6.2,6.2,0,0,1-1.1,2.4,5.42,5.42,0,0,1-1.7,1.42,5.91,5.91,0,0,1-2.07.63,6,6,0,0,1-4-1,5.46,5.46,0,0,1-1.52-1.51,5.05,5.05,0,0,1-.88-2,6,6,0,0,1,.12-2.63Zm.34,13.08a2.3,2.3,0,0,0,.24,1.94,2.55,2.55,0,0,0,3.17.77,2.28,2.28,0,0,0,1.1-1.62l3-12.27a2.31,2.31,0,0,0-.24-1.94,2.57,2.57,0,0,0-3.17-.77,2.35,2.35,0,0,0-1.1,1.62Z"/><path class="cls-4" d="M248.18,78.83l7.94-22.55,3.1,1.09.1,15.3.06,0,4.78-13.59,3.23,1.13L259.46,82.8l-3-1.07-.17-15.3-.07,0L251.42,80Z"/><path class="cls-4" d="M263.87,84.77,272.44,66l-3.6-1.64,1.33-2.93,10.33,4.7L279.17,69l-3.61-1.65L267,86.19Z"/><path class="cls-4" d="M271.49,88.3l11.75-20.82,4.8,2.71c3.51,2,4.11,5,1.81,9.09a8.76,8.76,0,0,1-2.34,2.8,5,5,0,0,1-3.17,1l-2.15,11.32L279,92.56l2.24-10.45-1.78-1-5,8.88ZM284.64,72,281,78.47l1.7,1a3.48,3.48,0,0,0,1.38.5,2.1,2.1,0,0,0,1.09-.22,3.25,3.25,0,0,0,.89-.83,11.18,11.18,0,0,0,.87-1.34,10.91,10.91,0,0,0,.7-1.43,3.18,3.18,0,0,0,.23-1.24,2.74,2.74,0,0,0-1.64-2Z"/><path class="cls-4" d="M293.72,80.11a6,6,0,0,1,1.88-1.8,5.3,5.3,0,0,1,2.16-.74,5.58,5.58,0,0,1,2.11.17,5.91,5.91,0,0,1,1.9.88,6.16,6.16,0,0,1,1.48,1.49,6,6,0,0,1,.91,2,5.54,5.54,0,0,1,0,2.26,6.15,6.15,0,0,1-1.05,2.38L295.87,97a6.17,6.17,0,0,1-1.9,1.83,5.23,5.23,0,0,1-2.09.7,5.8,5.8,0,0,1-2.16-.16,6.13,6.13,0,0,1-1.9-.88A6,6,0,0,1,286.34,97a5.48,5.48,0,0,1-.87-2,5.21,5.21,0,0,1-.07-2.23,5.88,5.88,0,0,1,1.07-2.4Zm-4.45,12.3a2.27,2.27,0,0,0-.48,1.9,2.43,2.43,0,0,0,1,1.41,2.46,2.46,0,0,0,1.67.46,2.31,2.31,0,0,0,1.62-1.11l7.25-10.33a2.3,2.3,0,0,0,.48-1.9A2.55,2.55,0,0,0,298.14,81a2.32,2.32,0,0,0-1.62,1.1Z"/><path class="cls-4" d="M294.58,103.22,310,85l2.61,2.21L299.4,102.82l5.18,4.38-2.21,2.61Z"/><path class="cls-4" d="M307.91,115.23l17.62-16.17,6.9,7.53-2.37,2.17-4.59-5-5.17,4.74,4,4.36L321.92,115l-4-4.35-5.17,4.74,4.59,5-2.53,2.32Z"/><path class="cls-4" d="M336.14,122.49l-2.08-2.72.61-.47a3.65,3.65,0,0,0,1.28-1.67,2.07,2.07,0,0,0-.46-2,2.21,2.21,0,0,0-.91-.75,2.3,2.3,0,0,0-1-.15,3,3,0,0,0-1,.31,6.23,6.23,0,0,0-1,.63,10.72,10.72,0,0,0-.9.75,2.44,2.44,0,0,0-.52.71,1.88,1.88,0,0,0-.14.86,5,5,0,0,0,.21,1.16l.77,2.72a6.38,6.38,0,0,1,.31,2.09,4.37,4.37,0,0,1-.4,1.7,6.55,6.55,0,0,1-1.15,1.52A17.16,17.16,0,0,1,328,128.7a11.72,11.72,0,0,1-2.41,1.47,5.88,5.88,0,0,1-2.33.56,4.77,4.77,0,0,1-2.3-.56,6.48,6.48,0,0,1-2.12-1.89,6,6,0,0,1-1.07-2.1,5.5,5.5,0,0,1-.16-2.2,5.8,5.8,0,0,1,.68-2.07,5.63,5.63,0,0,1,1.49-1.72l1-.77,2.08,2.72-.85.65a2.8,2.8,0,0,0-1,1.47,2.17,2.17,0,0,0,.53,1.94,3.16,3.16,0,0,0,1,.93,2,2,0,0,0,1,.16,2.71,2.71,0,0,0,1.08-.44c.37-.23.76-.52,1.19-.84s.89-.72,1.19-1a2.88,2.88,0,0,0,.61-.8,1.93,1.93,0,0,0,.1-.86,8.6,8.6,0,0,0-.23-1.12l-.69-2.56a5.39,5.39,0,0,1,.1-3.82,8.16,8.16,0,0,1,2.51-2.88,9,9,0,0,1,2.25-1.26,6,6,0,0,1,2.32-.39,5,5,0,0,1,2.2.58,6,6,0,0,1,2,1.75,5.62,5.62,0,0,1,1,2.14,5.87,5.87,0,0,1,.12,2.2,5.14,5.14,0,0,1-2,3.48Z"/><path class="cls-4" d="M325,136.5l17.41-11.17L340.25,122l2.72-1.74,6.12,9.55-2.71,1.74-2.14-3.33-17.41,11.16Z"/><path class="cls-4" d="M329.47,143.6l21.17-11.11,2.56,4.87q2.82,5.35-3.4,8.62a8.88,8.88,0,0,1-3.49,1.08,5,5,0,0,1-3.18-.92l-7.94,8.34-1.69-3.21,7.56-7.57-1-1.81-9,4.74ZM349.38,137l-6.6,3.46.91,1.73a3.42,3.42,0,0,0,.89,1.16,1.91,1.91,0,0,0,1,.4,3,3,0,0,0,1.2-.21,11.46,11.46,0,0,0,1.46-.65,11.27,11.27,0,0,0,1.36-.83,3.1,3.1,0,0,0,.87-.91,2.72,2.72,0,0,0-.29-2.58Z"/><path class="cls-4" d="M335.15,154.41l24.16-4.1,1.07,2.64-20.11,14L339,163.76l4.37-2.87-1.76-4.32-5.14,1Zm10.94,4.67,7.39-4.83,0-.07-8.65,1.73Z"/><path class="cls-4" d="M340.68,168.57l19.66-6.42-1.23-3.77,3.06-1,3.53,10.79-3.07,1-1.23-3.77-19.66,6.42Z"/><path class="cls-4" d="M343.21,176.61l23.25-5.55,2.38,9.92-3.14.75-1.57-6.59-6.83,1.63,1.37,5.75-3.13.75-1.37-5.75-6.83,1.63,1.58,6.6-3.33.79Zm24.94-3.13,5.31,1.84.84,3.53-5.63-3.21Z"/><path class="cls-4" d="M364,185.4a6,6,0,0,1,2.6.13,5.37,5.37,0,0,1,2,1.07,5.79,5.79,0,0,1,1.33,1.65,6,6,0,0,1,.59,4.09,6.31,6.31,0,0,1-.8,2,5.71,5.71,0,0,1-1.64,1.56,6.14,6.14,0,0,1-2.46.86l-1.19.17-.49-3.39,1.19-.17a2.31,2.31,0,0,0,1.72-.94,2.45,2.45,0,0,0,.35-1.7,2.41,2.41,0,0,0-.82-1.52,2.26,2.26,0,0,0-1.91-.42L352,190.59a2.29,2.29,0,0,0-1.72.94,2.45,2.45,0,0,0-.35,1.7,2.42,2.42,0,0,0,.82,1.53,2.33,2.33,0,0,0,1.91.42l4.45-.65-.39-2.69,3-.43.88,6.08-7.44,1.08a6.1,6.1,0,0,1-2.63-.13,5.37,5.37,0,0,1-2-1,5.79,5.79,0,0,1-1.36-1.69,5.93,5.93,0,0,1-.67-2,6.2,6.2,0,0,1,.08-2.1,5.28,5.28,0,0,1,.83-2,5,5,0,0,1,1.57-1.58,5.92,5.92,0,0,1,2.49-.87Z"/><path class="cls-4" d="M347.66,202.06l23.84-1.72.25,3.42-23.85,1.71Z"/><path class="cls-4" d="M355.05,219.1l-1.47,0a5.2,5.2,0,0,1-2.11-.38,5.92,5.92,0,0,1-1.78-1.13,5.72,5.72,0,0,1-1.25-1.71,5,5,0,0,1-.49-2.13,7.55,7.55,0,0,1,.24-2,4.57,4.57,0,0,1,.91-1.83,5,5,0,0,1,1.7-1.35,6.14,6.14,0,0,1,2.7-.57l13.16-.21a5.86,5.86,0,0,1,2.19.37,5,5,0,0,1,1.76,1.11,5.23,5.23,0,0,1,1.19,1.74,6.07,6.07,0,0,1,.46,2.26,5.23,5.23,0,0,1-1.52,4,5.62,5.62,0,0,1-1.81,1.18,6,6,0,0,1-2.29.46l-1.35,0-.05-3.42,1.14,0a2.78,2.78,0,0,0,1.74-.6,1.87,1.87,0,0,0,.71-1.56,1.73,1.73,0,0,0-.82-1.68,4.13,4.13,0,0,0-2-.38l-12.22.19a3.16,3.16,0,0,0-1.74.48,1.79,1.79,0,0,0-.68,1.64,2.38,2.38,0,0,0,.13.72,2.14,2.14,0,0,0,.4.72,2,2,0,0,0,.75.49,2.88,2.88,0,0,0,1.17.18l1.18,0Z"/><path class="cls-4" d="M366.27,223a6.21,6.21,0,0,1,2.5.73,5.57,5.57,0,0,1,1.71,1.51,5.85,5.85,0,0,1,.91,1.92,5.92,5.92,0,0,1-.38,4.11,6,6,0,0,1-1.24,1.76,5.66,5.66,0,0,1-2,1.14,6.32,6.32,0,0,1-2.58.27l-12.58-1.15a6.23,6.23,0,0,1-2.53-.74,5.35,5.35,0,0,1-1.65-1.47,5.65,5.65,0,0,1-.93-2,5.75,5.75,0,0,1-.18-2.09,6,6,0,0,1,.55-2,5.49,5.49,0,0,1,1.27-1.72,5.17,5.17,0,0,1,1.9-1.17,6,6,0,0,1,2.62-.27Zm-12.88,2.26a2.3,2.3,0,0,0-1.89.52,2.39,2.39,0,0,0-.73,1.57,2.44,2.44,0,0,0,.43,1.67,2.28,2.28,0,0,0,1.76.86L365.54,231a2.26,2.26,0,0,0,1.88-.51,2.49,2.49,0,0,0,.74-1.57,2.46,2.46,0,0,0-.44-1.68,2.31,2.31,0,0,0-1.76-.85Z"/><circle class="cls-3" cx="326.46" cy="397.47" r="7.63"/><path class="cls-5" d="M325.62,397.47a215.11,215.11,0,0,0,96.1-179.3c0-118.93-96.41-215.34-215.34-215.34A214.77,214.77,0,0,0,43.77,77.1"/><path d="M207.63,405.72a188.74,188.74,0,0,0,171.82-110.5H35.8A188.75,188.75,0,0,0,207.63,405.72Z"/><path class="cls-4" d="M169.53,326.84H159.18v-4.11a10.11,10.11,0,0,0-.4-3.67,1.37,1.37,0,0,0-1.32-.78,1.64,1.64,0,0,0-1.53,1.06,7.78,7.78,0,0,0-.51,3.22,11.47,11.47,0,0,0,.58,4.19,9.46,9.46,0,0,0,3.15,3.39q7.44,5.72,9.38,9.38t1.93,11.83a26.46,26.46,0,0,1-1.07,8.74,9.66,9.66,0,0,1-4.15,4.71,13.29,13.29,0,0,1-7.15,1.9,13.1,13.1,0,0,1-7.64-2.19,10.08,10.08,0,0,1-4.14-5.59,36.22,36.22,0,0,1-1-9.63v-3.63h10.35v6.75a11.26,11.26,0,0,0,.44,4,1.57,1.57,0,0,0,1.55.89,1.75,1.75,0,0,0,1.65-1.13,7.89,7.89,0,0,0,.55-3.36q0-4.89-1-6.41a35.2,35.2,0,0,0-5.21-5,54.38,54.38,0,0,1-5.51-5.18,12.8,12.8,0,0,1-2.24-4.46,24.84,24.84,0,0,1-.89-7.26q0-6.37,1.26-9.32a9.6,9.6,0,0,1,4.07-4.61,13.05,13.05,0,0,1,6.78-1.66,14.27,14.27,0,0,1,7.4,1.81,8.83,8.83,0,0,1,4,4.58q1,2.76,1,9.37Z"/><path class="cls-4" d="M185.75,310.05v55.49H174.61V310.05Z"/><path class="cls-4" d="M190.88,310.05h8.34q8.09,0,10.93,1a8.19,8.19,0,0,1,4.33,3.15,11.42,11.42,0,0,1,1.85,4.89,94.6,94.6,0,0,1,.37,10.57v19.43a58.43,58.43,0,0,1-.54,10,8,8,0,0,1-1.89,3.94,7.28,7.28,0,0,1-3.34,2,23.36,23.36,0,0,1-6,.57H190.88ZM202,319.54V356c1.61,0,2.6-.41,3-1.25s.55-3.1.55-6.8V326.43a38.47,38.47,0,0,0-.18-4.83,2.39,2.39,0,0,0-.85-1.56A4.41,4.41,0,0,0,202,319.54Z"/><path class="cls-4" d="M247.54,334.21H236.39v-9.64a22.88,22.88,0,0,0-.35-5.25,1.5,1.5,0,0,0-1.58-1,1.65,1.65,0,0,0-1.75,1.26,25.36,25.36,0,0,0-.37,5.49V350.8a23.52,23.52,0,0,0,.37,5.28,1.59,1.59,0,0,0,1.67,1.23,1.58,1.58,0,0,0,1.63-1.24,25.68,25.68,0,0,0,.38-5.8v-7h11.15v2.17q0,8.61-.94,12.22a12.21,12.21,0,0,1-4.15,6.31,11.89,11.89,0,0,1-7.94,2.71,13.42,13.42,0,0,1-8.07-2.29,10.81,10.81,0,0,1-4.21-6.36,53.29,53.29,0,0,1-1-12.22V329.62q0-6,.32-9a14.7,14.7,0,0,1,1.89-5.77,11.47,11.47,0,0,1,4.37-4.37,12.8,12.8,0,0,1,6.43-1.59,13,13,0,0,1,8.13,2.46,11.42,11.42,0,0,1,4.21,6.14,47.43,47.43,0,0,1,1,11.45Z"/><path class="cls-4" d="M252.19,310.05h18.59v11.1h-7.44v10.53h7v10.55h-7v12.2h8.19v11.11H252.19Z"/><path class="cls-6" d="M206.86,417.05C96.61,417.05,7.24,327.68,7.24,217.43S96.61,17.82,206.86,17.82s199.62,89.37,199.62,199.61S317.1,417.05,206.86,417.05Z"/><path class="cls-3" d="M206.07,412.7C107.88,412.7,26.46,339.64,13.22,245H3.48c13.31,100,99.06,177.33,202.59,177.33.43,0,.84,0,1.26,0v-9.66C206.91,412.67,206.5,412.7,206.07,412.7Z"/><rect class="cls-4" x="134.83" y="144.22" width="104.3" height="131.5" rx="5.91"/><line class="cls-7" x1="147.14" y1="159.25" x2="226.95" y2="159.25"/><line class="cls-7" x1="147.14" y1="171.69" x2="226.95" y2="171.69"/><line class="cls-7" x1="147.14" y1="184.13" x2="226.95" y2="184.13"/><line class="cls-7" x1="147.14" y1="196.57" x2="226.95" y2="196.57"/><line class="cls-7" x1="147.14" y1="209.01" x2="226.95" y2="209.01"/><line class="cls-7" x1="147.14" y1="221.45" x2="226.95" y2="221.45"/><line class="cls-7" x1="147.14" y1="233.89" x2="226.95" y2="233.89"/><line class="cls-7" x1="147.14" y1="246.33" x2="226.95" y2="246.33"/><line class="cls-7" x1="147.14" y1="258.78" x2="226.95" y2="258.78"/><path class="cls-3" d="M282.27,245.74l-27-27a35,35,0,1,0-6.85,7.45l26.73,26.74a5.06,5.06,0,0,0,7.16-7.16Zm-80.54-46.57a24.7,24.7,0,1,1,24.7,24.7A24.73,24.73,0,0,1,201.73,199.17Z"/><circle class="cls-8" cx="226.43" cy="199.17" r="24.7"/><path class="cls-3" d="M221.73,205.34a11.11,11.11,0,0,0-8.85-5,27.15,27.15,0,0,1,5.62,6.08,46.5,46.5,0,0,1,3.18,6.25,73.62,73.62,0,0,1,9.33-17,40.52,40.52,0,0,1,12.65-11.22C229.26,189.09,221.73,205.34,221.73,205.34Z"/></svg>